<?xml version="1.0" encoding="UTF-8" standalone="no"?>
<!-- Created with Inkscape (http://www.inkscape.org/) -->

<svg
   xmlns:dc="http://purl.org/dc/elements/1.1/"
   xmlns:cc="http://creativecommons.org/ns#"
   xmlns:rdf="http://www.w3.org/1999/02/22-rdf-syntax-ns#"
   xmlns:svg="http://www.w3.org/2000/svg"
   xmlns="http://www.w3.org/2000/svg"
   xmlns:sodipodi="http://sodipodi.sourceforge.net/DTD/sodipodi-0.dtd"
   xmlns:inkscape="http://www.inkscape.org/namespaces/inkscape"
   width="52.409969mm"
   height="38.328491mm"
   viewBox="0 0 52.409964 38.328491"
   version="1.1"
   id="svg8"
   inkscape:version="0.92.2 (5c3e80d, 2017-08-06)"
   sodipodi:docname="corner2.svg">
  <defs
     id="defs2" />
  <sodipodi:namedview
     id="base"
     pagecolor="#ffffff"
     bordercolor="#666666"
     borderopacity="1.0"
     inkscape:pageopacity="0.0"
     inkscape:pageshadow="2"
     inkscape:zoom="1.1973692"
     inkscape:cx="194.47232"
     inkscape:cy="-15.066898"
     inkscape:document-units="mm"
     inkscape:current-layer="layer1"
     showgrid="false"
     inkscape:window-width="1680"
     inkscape:window-height="988"
     inkscape:window-x="1272"
     inkscape:window-y="-8"
     inkscape:window-maximized="1" />
  <metadata
     id="metadata5">
    <rdf:RDF>
      <cc:Work
         rdf:about="">
        <dc:format>image/svg+xml</dc:format>
        <dc:type
           rdf:resource="http://purl.org/dc/dcmitype/StillImage" />
        <dc:title />
      </cc:Work>
    </rdf:RDF>
  </metadata>
  <g
     inkscape:label="Layer 1"
     inkscape:groupmode="layer"
     id="layer1"
     transform="translate(0.52524637,0.07092973)">
    <path
       id="path4528"
       style="fill:none;stroke:#fafad2;stroke-width:0.60023636;stroke-linecap:butt;stroke-linejoin:miter;stroke-miterlimit:4;stroke-dasharray:none;stroke-opacity:1"
       d="m 1.377664,3.0087641 c 1.4475508,1.7765321 3.9197307,2.8137106 3.9197307,5.7147844 0,2.8288065 -4.1009495,3.2991545 -5.08333872,1.3343765 C -0.87704992,7.8757136 3.2404143,7.038459 2.1347338,9.6920925 M 21.74279,5.3002379 c 1.764491,0.9501614 3.786946,0.8010939 5.547988,-0.079427 4.69448,-2.3472404 -0.964983,-6.14351673 -1.667971,-2.7084667 M 12.800206,23.968663 c -16.77728,1.973407 -3.6294158,19.534915 3.684324,12.221176 3.69399,-3.69399 -3.056132,-7.20374 -5.860626,-4.399247 -2.1676087,2.16761 2.342442,5.387861 3.165323,1.814287 M 41.895735,19.434625 c 2.742722,-0.702457 8.018593,0.863849 7.952751,4.897456 -0.05879,3.601431 -4.778642,5.772858 -8.222335,3.190086 -1.799229,-1.349421 -0.04605,-5.729233 2.066817,-4.672803 2.032677,0.916603 0.489067,3.511855 -0.954298,2.52072 m -22.058693,-5.67149 c -2.443827,6.485763 2.739835,16.322983 10.963114,13.973476 4.054832,-1.158524 8.810128,-6.458271 3.78261,-9.474782 -1.180511,-0.708306 -2.913946,-0.522722 -4.133632,0 -5.909913,2.53282 -1.565981,7.258373 0.718892,4.560475 M 23.656752,11.006884 C 25.505947,24.972396 54.98764,21.968891 51.262727,7.0692483 50.148517,2.612412 45.22405,1.0521128 41.198233,1.8572751 39.221745,2.2525736 36.805681,4.0824853 35.8964,5.9010477 32.334567,13.024705 43.702748,13.240963 41.977084,7.9410786 M -0.22795764,-0.02981611 C 1.1109643,9.6518037 20.009942,-1.410467 22.866469,7.1591123 28.187927,23.123482 5.9298939,29.274392 3.4563675,19.380285 1.7656093,12.617257 9.1331029,9.6595848 14.058163,12.942957 c 3.970267,2.646844 -0.997752,8.224462 -4.0813807,3.984472"
       inkscape:connector-curvature="0"
       sodipodi:nodetypes="cssccsccssccsscccsssccsssccsssc" />
  </g>
</svg>
